REM DIRINDEX 1\2,1\3\7,1\3\8,1\4\9,1\4\10,1\4\11,1\5\12,1\5\13,1\5\14,1\6\15,1\6\16,1\6\17
REM DIRNAME "folder01","folder02","folder03","folder04","folder05","folder06","folder07","folder08","folder09","folder10","folder11","folder12","folder13","folder14","folder15","folder16","folder17"
TITLE ""
FILE "2Q_k_081-090.mp3" MP3
  TRACK 01 AUDIO
    TITLE "12:cjc174_1645"
    INDEX 01 00:00:00
  TRACK 02 AUDIO
    TITLE "0:"
    INDEX 01 00:01:67
  TRACK 03 AUDIO
    TITLE "13:cjc174_1646"
    INDEX 01 00:02:39
  TRACK 04 AUDIO
    TITLE "0:"
    INDEX 01 00:04:00
  TRACK 05 AUDIO
    TITLE "14:cjc174_1647"
    INDEX 01 00:04:49
  TRACK 06 AUDIO
    TITLE "14:cjc174_1648"
    INDEX 01 00:07:67
  TRACK 07 AUDIO
    TITLE "0:"
    INDEX 01 00:10:19
  TRACK 08 AUDIO
    TITLE "12:cjc174_1649"
    INDEX 01 00:10:62
  TRACK 09 AUDIO
    TITLE "0:"
    INDEX 01 00:12:49
  TRACK 10 AUDIO
    TITLE "13:cjc174_1650"
    INDEX 01 00:13:23
  TRACK 11 AUDIO
    TITLE "0:"
    INDEX 01 00:15:18
  TRACK 12 AUDIO
    TITLE "14:cjc174_1651"
    INDEX 01 00:15:63
  TRACK 13 AUDIO
    TITLE "14:cjc174_1652"
    INDEX 01 00:23:00
  TRACK 14 AUDIO
    TITLE "0:"
    INDEX 01 00:24:09
  TRACK 15 AUDIO
    TITLE "12:cjc174_1653"
    INDEX 01 00:24:56
  TRACK 16 AUDIO
    TITLE "0:"
    INDEX 01 00:26:37
  TRACK 17 AUDIO
    TITLE "13:cjc174_1654"
    INDEX 01 00:27:09
  TRACK 18 AUDIO
    TITLE "0:"
    INDEX 01 00:29:37
  TRACK 19 AUDIO
    TITLE "14:cjc174_1655"
    INDEX 01 00:30:07
  TRACK 20 AUDIO
    TITLE "14:cjc174_1656"
    INDEX 01 00:34:19
  TRACK 21 AUDIO
    TITLE "0:"
    INDEX 01 00:37:47
  TRACK 22 AUDIO
    TITLE "12:cjc174_1657"
    INDEX 01 00:38:17
  TRACK 23 AUDIO
    TITLE "0:"
    INDEX 01 00:39:32
  TRACK 24 AUDIO
    TITLE "13:cjc174_1658"
    INDEX 01 00:40:08
  TRACK 25 AUDIO
    TITLE "0:"
    INDEX 01 00:41:23
  TRACK 26 AUDIO
    TITLE "14:cjc174_1659"
    INDEX 01 00:41:66
  TRACK 27 AUDIO
    TITLE "14:cjc174_1660"
    INDEX 01 00:44:41
  TRACK 28 AUDIO
    TITLE "0:"
    INDEX 01 00:45:38
  TRACK 29 AUDIO
    TITLE "12:cjc174_1661"
    INDEX 01 00:46:10
  TRACK 30 AUDIO
    TITLE "0:"
    INDEX 01 00:47:53
  TRACK 31 AUDIO
    TITLE "13:cjc174_1662"
    INDEX 01 00:48:25
  TRACK 32 AUDIO
    TITLE "0:"
    INDEX 01 00:50:36
  TRACK 33 AUDIO
    TITLE "14:cjc174_1663"
    INDEX 01 00:51:06
  TRACK 34 AUDIO
    TITLE "14:cjc174_1664"
    INDEX 01 00:54:43
  TRACK 35 AUDIO
    TITLE "0:"
    INDEX 01 00:58:04
  TRACK 36 AUDIO
    TITLE "12:cjc174_1665"
    INDEX 01 00:58:51
  TRACK 37 AUDIO
    TITLE "0:"
    INDEX 01 01:00:14
  TRACK 38 AUDIO
    TITLE "13:cjc174_1666"
    INDEX 01 01:00:61
  TRACK 39 AUDIO
    TITLE "0:"
    INDEX 01 01:02:35
  TRACK 40 AUDIO
    TITLE "14:cjc174_1667"
    INDEX 01 01:03:05
  TRACK 41 AUDIO
    TITLE "14:cjc174_1668"
    INDEX 01 01:09:62
  TRACK 42 AUDIO
    TITLE "0:"
    INDEX 01 01:12:06
  TRACK 43 AUDIO
    TITLE "12:cjc174_1669"
    INDEX 01 01:12:51
  TRACK 44 AUDIO
    TITLE "0:"
    INDEX 01 01:14:42
  TRACK 45 AUDIO
    TITLE "13:cjc174_1670"
    INDEX 01 01:15:14
  TRACK 46 AUDIO
    TITLE "0:"
    INDEX 01 01:16:72
  TRACK 47 AUDIO
    TITLE "14:cjc174_1671"
    INDEX 01 01:17:44
  TRACK 48 AUDIO
    TITLE "14:cjc174_1672"
    INDEX 01 01:19:41
  TRACK 49 AUDIO
    TITLE "0:"
    INDEX 01 01:23:33
  TRACK 50 AUDIO
    TITLE "12:cjc174_1673"
    INDEX 01 01:24:03
  TRACK 51 AUDIO
    TITLE "0:"
    INDEX 01 01:26:08
  TRACK 52 AUDIO
    TITLE "13:cjc174_1674"
    INDEX 01 01:26:55
  TRACK 53 AUDIO
    TITLE "0:"
    INDEX 01 01:28:40
  TRACK 54 AUDIO
    TITLE "14:cjc174_1675"
    INDEX 01 01:29:10
  TRACK 55 AUDIO
    TITLE "14:cjc174_1676"
    INDEX 01 01:33:16
  TRACK 56 AUDIO
    TITLE "0:"
    INDEX 01 01:35:52
  TRACK 57 AUDIO
    TITLE "12:cjc174_1677"
    INDEX 01 01:36:22
  TRACK 58 AUDIO
    TITLE "0:"
    INDEX 01 01:37:59
  TRACK 59 AUDIO
    TITLE "13:cjc174_1678"
    INDEX 01 01:38:27
  TRACK 60 AUDIO
    TITLE "0:"
    INDEX 01 01:39:67
  TRACK 61 AUDIO
    TITLE "14:cjc174_1679"
    INDEX 01 01:40:36
  TRACK 62 AUDIO
    TITLE "14:cjc174_1680"
    INDEX 01 01:43:34
  TRACK 63 AUDIO
    TITLE "0:"
    INDEX 01 01:47:63
  TRACK 64 AUDIO
    TITLE "12:cjc174_1681"
    INDEX 01 01:48:35
  TRACK 65 AUDIO
    TITLE "0:"
    INDEX 01 01:49:48
  TRACK 66 AUDIO
    TITLE "13:cjc174_1682"
    INDEX 01 01:50:20
  TRACK 67 AUDIO
    TITLE "0:"
    INDEX 01 01:51:61
  TRACK 68 AUDIO
    TITLE "14:cjc174_1683"
    INDEX 01 01:52:31
  TRACK 69 AUDIO
    TITLE "14:cjc174_1684"
    INDEX 01 01:53:42
  TRACK 70 AUDIO
    TITLE "0:"
    INDEX 01 01:55:66
